<svg xmlns="http://www.w3.org/2000/svg" version="1.1" xmlns:xlink="http://www.w3.org/1999/xlink" xmlns:svgjs="http://svgjs.dev/svgjs" width="1440" height="560" preserveAspectRatio="none" viewBox="0 0 1440 560"><g mask="url(&quot;#SvgjsMask1000&quot;)" fill="none"><rect width="1440" height="560" x="0" y="0" fill="#0e2a47"></rect><path d="M 0,267 C 57.6,220.6 172.8,42.2 288,35 C 403.2,27.8 460.8,228.4 576,231 C 691.2,233.6 748.8,41.4 864,48 C 979.2,54.6 1036.8,273.4 1152,264 C 1267.2,254.6 1382.4,53.6 1440,1L1440 560L0 560z" fill="#184a7e"></path><path d="M 0,396 C 96,405.6 288,457.8 480,444 C 672,430.2 768,321.6 960,327 C 1152,332.4 1344,442.2 1440,471L1440 560L0 560z" fill="#2264ab"></path></g><defs><mask id="SvgjsMask1000"><rect width="1440" height="560" fill="#ffffff"></rect></mask></defs></svg>